<?xml version="1.0" encoding="UTF-8"?>
<svg width="34px" height="33px" viewBox="0 0 34 33" version="1.1" xmlns="http://www.w3.org/2000/svg" xmlns:xlink="http://www.w3.org/1999/xlink">
    <title>B2D0F5CE-6BE0-4B20-8032-4FEC5367E6D6</title>
    <defs>
        <filter id="filter-1">
            <feColorMatrix in="SourceGraphic" type="matrix" values="0 0 0 0 1.000000 0 0 0 0 0.647059 0 0 0 0 0.368627 0 0 0 1.000000 0"></feColorMatrix>
        </filter>
        <filter x="-27.1%" y="-28.3%" width="154.2%" height="156.5%" filterUnits="objectBoundingBox" id="filter-2">
            <feOffset dx="0" dy="0" in="SourceAlpha" result="shadowOffsetOuter1"></feOffset>
            <feGaussianBlur stdDeviation="1.5" in="shadowOffsetOuter1" result="shadowBlurOuter1"></feGaussianBlur>
            <feColorMatrix values="0 0 0 0 1   0 0 0 0 0.647058824   0 0 0 0 0.368627451  0 0 0 1 0" type="matrix" in="shadowBlurOuter1" result="shadowMatrixOuter1"></feColorMatrix>
            <feMerge>
                <feMergeNode in="shadowMatrixOuter1"></feMergeNode>
                <feMergeNode in="SourceGraphic"></feMergeNode>
            </feMerge>
        </filter>
        <polygon id="path-3" points="0.184375 0.156525 4.031 0.156525 4.031 4.008275 0.184375 4.008275"></polygon>
    </defs>
    <g id="Final-designs---cards" stroke="none" stroke-width="1" fill="none" fill-rule="evenodd">
        <g id="Tool---3.-crispr" transform="translate(-15.000000, -787.000000)">
            <g id="item/text-box-copy-3" transform="translate(0.000000, 776.000000)">
                <g id="icon/motto" transform="translate(20.000000, 16.000000)">
                    <rect id="Rectangle" x="0" y="0" width="24" height="24"></rect>
                    <g filter="url(#filter-1)" id="Group-12">
                        <g filter="url(#filter-2)">
                            <path d="M8.0234,7.45945 C6.9869,7.45945 6.0124,7.86345 5.2794,8.59595 C3.7659,10.10945 3.7659,12.57195 5.2794,14.08495 L11.7569,20.56245 L18.2344,14.08495 C19.7479,12.57195 19.7479,10.10945 18.2344,8.59595 C17.5014,7.86345 16.5269,7.45945 15.4904,7.45945 C14.4539,7.45945 13.4794,7.86345 12.7464,8.59595 L11.7574,9.58545 L10.7679,8.59645 C10.0344,7.86345 9.0599,7.45945 8.0234,7.45945 M11.7569,22.64995 C11.2789,22.64995 10.8299,22.46395 10.4919,22.12595 L3.8654,15.49895 C1.5719,13.20595 1.5719,9.47495 3.8654,7.18195 C4.9759,6.07145 6.4524,5.45945 8.0234,5.45945 C9.4014,5.45945 10.7074,5.92995 11.7569,6.79595 C12.8064,5.92995 14.1124,5.45945 15.4904,5.45945 C17.0614,5.45945 18.5379,6.07145 19.6484,7.18195 C21.9419,9.47495 21.9419,13.20595 19.6484,15.49895 L13.0219,22.12595 C12.6839,22.46395 12.2344,22.64995 11.7569,22.64995" id="Fill-1" fill="#656D79"></path>
                            <path d="M1.58395,22.5508 L1.58395,22.5508 C1.19345,22.1603 1.19345,21.5268 1.58395,21.1368 L3.37995,19.3778 C3.77045,18.9873 4.40345,18.9873 4.79395,19.3778 C5.18445,19.7688 5.18445,20.4013 4.79395,20.7918 L2.99795,22.5508 C2.60745,22.9413 1.97445,22.9408 1.58395,22.5508" id="Fill-3" fill="#656D79"></path>
                            <path d="M0.29295,1.45705 L0.29295,1.45705 C-0.09755,1.84755 -0.09755,2.48055 0.29295,2.87105 L2.13745,4.55905 C2.52795,4.94955 3.16095,4.94955 3.55145,4.55905 C3.94195,4.16855 3.94195,3.53555 3.55145,3.14505 L1.70695,1.45705 C1.31645,1.06655 0.68345,1.06655 0.29295,1.45705" id="Fill-5" fill="#656D79"></path>
                            <path d="M22.96455,22.5508 L22.96455,22.5508 C23.35505,22.1603 23.35505,21.5268 22.96455,21.1368 L21.14855,19.3778 C20.75805,18.9873 20.12505,18.9873 19.73455,19.3778 C19.34405,19.7688 19.34405,20.4013 19.73455,20.7918 L21.55055,22.5508 C21.94105,22.9413 22.57405,22.9408 22.96455,22.5508" id="Fill-7" fill="#656D79"></path>
                            <g id="Group-11" transform="translate(19.500000, 0.343550)">
                                <mask id="mask-4" fill="white">
                                    <use xlink:href="#path-3"></use>
                                </mask>
                                <g id="Clip-10"></g>
                                <path d="M3.73825,0.4494 L3.73825,0.4494 C4.12875,0.8399 4.12875,1.4729 3.73825,1.8634 L1.89125,3.7154 C1.50075,4.1059 0.86775,4.1059 0.47725,3.7154 C0.08675,3.3249 0.08675,2.6919 0.47725,2.3014 L2.32425,0.4494 C2.71475,0.0589 3.34775,0.0589 3.73825,0.4494" id="Fill-9" fill="#656D79" mask="url(#mask-4)"></path>
                            </g>
                        </g>
                    </g>
                </g>
            </g>
        </g>
    </g>
</svg>