<?xml version="1.0" encoding="UTF-8"?>
<svg width="37px" height="36px" viewBox="0 0 37 36" version="1.1" xmlns="http://www.w3.org/2000/svg" xmlns:xlink="http://www.w3.org/1999/xlink">
    <title>A2BDAB28-6ABD-41A6-AF96-F297BB2F0FDF</title>
    <defs>
        <filter id="filter-1">
            <feColorMatrix in="SourceGraphic" type="matrix" values="0 0 0 0 0.705882 0 0 0 0 0.749020 0 0 0 0 0.952941 0 0 0 1.000000 0"></feColorMatrix>
        </filter>
        <filter x="-33.3%" y="-33.3%" width="170.8%" height="166.7%" filterUnits="objectBoundingBox" id="filter-2">
            <feOffset dx="0" dy="0" in="SourceAlpha" result="shadowOffsetOuter1"></feOffset>
            <feGaussianBlur stdDeviation="2" in="shadowOffsetOuter1" result="shadowBlurOuter1"></feGaussianBlur>
            <feColorMatrix values="0 0 0 0 0.705882353   0 0 0 0 0.749019608   0 0 0 0 0.952941176  0 0 0 1 0" type="matrix" in="shadowBlurOuter1" result="shadowMatrixOuter1"></feColorMatrix>
            <feMerge>
                <feMergeNode in="shadowMatrixOuter1"></feMergeNode>
                <feMergeNode in="SourceGraphic"></feMergeNode>
            </feMerge>
        </filter>
        <filter id="filter-3">
            <feColorMatrix in="SourceGraphic" type="matrix" values="0 0 0 0 1.000000 0 0 0 0 1.000000 0 0 0 0 1.000000 0 0 0 1.000000 0"></feColorMatrix>
        </filter>
        <polygon id="path-4" points="0 0.166913099 16.7888472 0.166913099 16.7888472 16.3018868 0 16.3018868"></polygon>
        <polygon id="path-6" points="0.00773860492 0.00407068039 2.12332075 0.00407068039 2.12332075 1.48212948 0.00773860492 1.48212948"></polygon>
    </defs>
    <g id="Final-designs---cards" stroke="none" stroke-width="1" fill="none" fill-rule="evenodd">
        <g id="Challenge---1.-isolation" transform="translate(-212.000000, -133.000000)">
            <g id="categories" transform="translate(26.000000, 125.000000)">
                <g id="icon/challenges" transform="translate(166.000000, 0.000000)" filter="url(#filter-1)">
                    <g filter="url(#filter-2)" transform="translate(26.000000, 14.000000)">
                        <rect id="Rectangle" x="0" y="0" width="24" height="24"></rect>
                        <g filter="url(#filter-3)" id="Group-15">
                            <g transform="translate(0.000000, 3.000000)">
                                <path d="M3.51405283,10.7271396 L3.51269434,10.7271396 C3.10967547,10.7271396 2.78182642,10.3771019 2.83571321,9.97770566 C3.16944906,7.51747925 5.12250566,5.56487547 7.58227925,5.23068679 C7.98167547,5.17634717 8.33216604,5.50510189 8.33216604,5.90766792 C8.33216604,6.25272453 8.07224151,6.53257358 7.73126038,6.58193208 C6.85005283,6.70917736 6.05669434,7.1117434 5.44175094,7.69906415 C4.77835472,8.33212075 4.32190189,9.1802717 4.18605283,10.1307623 C4.1376,10.4703849 3.85684528,10.7271396 3.51405283,10.7271396" id="Fill-1" fill="#656D79"></path>
                                <path d="M19.1389132,9.12810566 L18.8762717,8.86546415 C17.6776302,7.66682264 17.6776302,5.72418113 18.8762717,4.52599245 L19.1896302,4.21263396 C19.6669132,3.73535094 19.7837434,2.97550189 19.4065358,2.41580377 C18.899366,1.66365283 17.8641962,1.5912 17.2555925,2.19980377 L14.4294792,5.02591698 L13.1484226,3.74531321 L15.8957434,0.998445283 C17.0481962,-0.153554717 18.9025358,-0.355969811 20.1917434,0.640256604 C21.7521962,1.84478491 21.8581585,4.10576604 20.5096302,5.45429434 L20.1568755,5.80704906 C19.9195925,6.04387925 19.7891774,6.35995472 19.7891774,6.69550189 C19.7891774,7.03150189 19.9195925,7.34712453 20.1568755,7.58486038 L20.419517,7.84750189 C20.7731774,8.20116226 20.7731774,8.77444528 20.419517,9.12810566 C20.0658566,9.48176604 19.4925736,9.48176604 19.1389132,9.12810566" id="Fill-3" fill="#656D79"></path>
                                <g id="Group-7" transform="translate(0.000000, 1.857555)">
                                    <mask id="mask-5" fill="white">
                                        <use xlink:href="#path-4"></use>
                                    </mask>
                                    <g id="Clip-6"></g>
                                    <path d="M8.02822642,16.3019321 C6.0914717,16.3019321 4.15516981,15.6149887 2.64,14.2392906 C0.655698113,12.4388377 -0.297962264,9.83959245 0.0819622642,7.10313962 C0.223245283,6.08653585 0.570566038,5.10163019 1.09766038,4.22087547 C3.14581132,0.804271698 7.14566038,-0.508030189 10.6315472,0.6888 C11.1799245,0.876724528 11.4249057,1.43596981 11.1672453,1.95536604 C10.9616604,2.37061132 10.4798491,2.55129057 10.0410566,2.40095094 C7.23441509,1.44004528 4.00030189,2.57755472 2.47924528,5.46163019 C2.20890566,5.9733283 2.0205283,6.52895094 1.91864151,7.09906415 C1.49026415,9.48004528 2.36739623,11.7537057 4.22354717,13.2072906 C6.09101887,14.6703849 8.69388679,14.9325736 10.8090566,13.8571019 C13.269283,12.6059321 14.5584906,9.98902642 14.1844528,7.3938566 C14.1101887,6.87808302 13.970717,6.37408302 13.7719245,5.89589434 C13.5160755,5.27642264 13.824,4.98706415 14.4982642,4.35264906 C14.538566,4.31461132 14.5797736,4.27612075 14.6205283,4.23763019 L12.093283,1.71310189 C11.738717,1.35944151 11.738717,0.78570566 12.0928302,0.432045283 C12.4460377,0.0788377358 13.0188679,0.0783849057 13.3729811,0.431592453 L16.4938868,3.55023396 C16.6876981,3.74449811 16.7936604,4.00940377 16.7886792,4.2797434 C16.7832453,4.5482717 16.6668679,4.80729057 16.469434,4.99068679 C16.1203019,5.31400755 15.8486038,5.56940377 15.6516226,5.75506415 C15.7992453,6.20110189 15.9088302,6.6648 15.9772075,7.13529057 C16.3548679,9.75446038 15.4197736,12.3903849 13.4762264,14.1881208 C11.9533585,15.5959698 9.99079245,16.3014792 8.02822642,16.3019321" id="Fill-5" fill="#656D79" mask="url(#mask-5)"></path>
                                </g>
                                <path d="M17.6472906,12.224966 L17.6472906,12.2254189 C17.9601962,12.4319094 18.3817811,12.3458717 18.5882717,12.0320604 L19.0107623,11.3922113 C19.2172528,11.0797585 19.1303094,10.6581736 18.8174038,10.451683 C18.5044981,10.2451925 18.0829132,10.3312302 17.8764226,10.6445887 L17.4543849,11.2844377 C17.2478943,11.5973434 17.3343849,12.0184755 17.6472906,12.224966" id="Fill-8" fill="#656D79"></path>
                                <path d="M20.2577208,11.5152 L20.6874566,12.4312755 C20.8468528,12.7704453 21.2503245,12.9167094 21.5894943,12.7582189 C21.9300226,12.5992755 22.0767396,12.1944453 21.9173434,11.8543698 L21.4876075,10.9382943 C21.3282113,10.5991245 20.9247396,10.4524075 20.585117,10.6113509 C20.2450415,10.7698415 20.0978717,11.1751245 20.2577208,11.5152" id="Fill-10" fill="#656D79"></path>
                                <g id="Group-14" transform="translate(21.735849, 8.650008)">
                                    <mask id="mask-7" fill="white">
                                        <use xlink:href="#path-6"></use>
                                    </mask>
                                    <g id="Clip-13"></g>
                                    <path d="M0.0161207547,0.577584906 L0.0161207547,0.577584906 C-0.0422943396,0.948 0.210837736,1.29577358 0.58125283,1.35418868 L1.33838491,1.47373585 C1.7088,1.53215094 2.05657358,1.2794717 2.11498868,0.908603774 C2.1738566,0.538188679 1.92072453,0.190867925 1.55030943,0.132 L0.793177358,0.0124528302 C0.422309434,-0.0459622642 0.0749886792,0.207169811 0.0161207547,0.577584906" id="Fill-12" fill="#656D79" mask="url(#mask-7)"></path>
                                </g>
                            </g>
                        </g>
                    </g>
                </g>
            </g>
        </g>
    </g>
</svg>