<?xml version="1.0" encoding="UTF-8"?>
<svg width="34px" height="34px" viewBox="0 0 34 34" version="1.1" xmlns="http://www.w3.org/2000/svg" xmlns:xlink="http://www.w3.org/1999/xlink">
    <title>3C06EDB9-2B67-4EAB-8FC0-56C84A9A98B3</title>
    <defs>
        <filter id="filter-1">
            <feColorMatrix in="SourceGraphic" type="matrix" values="0 0 0 0 1.000000 0 0 0 0 0.647059 0 0 0 0 0.368627 0 0 0 1.000000 0"></feColorMatrix>
        </filter>
        <filter x="-34.1%" y="-34.1%" width="168.2%" height="168.2%" filterUnits="objectBoundingBox" id="filter-2">
            <feOffset dx="0" dy="0" in="SourceAlpha" result="shadowOffsetOuter1"></feOffset>
            <feGaussianBlur stdDeviation="1.5" in="shadowOffsetOuter1" result="shadowBlurOuter1"></feGaussianBlur>
            <feColorMatrix values="0 0 0 0 1   0 0 0 0 0.647058824   0 0 0 0 0.368627451  0 0 0 1 0" type="matrix" in="shadowBlurOuter1" result="shadowMatrixOuter1"></feColorMatrix>
            <feMerge>
                <feMergeNode in="shadowMatrixOuter1"></feMergeNode>
                <feMergeNode in="SourceGraphic"></feMergeNode>
            </feMerge>
        </filter>
    </defs>
    <g id="Final-designs---cards" stroke="none" stroke-width="1" fill="none" fill-rule="evenodd">
        <g id="Tool---3.-crispr" transform="translate(-15.000000, -1032.000000)">
            <g id="item/text-box-copy-4" transform="translate(0.000000, 1021.000000)">
                <g id="icon/motto" transform="translate(20.000000, 16.000000)">
                    <rect id="Rectangle" x="0" y="0" width="24" height="24"></rect>
                    <g filter="url(#filter-1)" id="Group-5" stroke-linecap="round" stroke-linejoin="round">
                        <g filter="url(#filter-2)" transform="translate(1.000000, 1.000000)">
                            <path d="M22,13 L22,9 L18.738,9 C18.549,8.268 18.261,7.577 17.886,6.942 L19.829,5 L17,2.172 L15.058,4.114 C14.422,3.739 13.732,3.451 13,3.262 L13,0 L9,0 L9,3.262 C8.268,3.451 7.578,3.739 6.942,4.114 L5,2.172 L2.171,5 L4.114,6.942 C3.739,7.577 3.451,8.268 3.262,9 L0,9 L0,13 L3.262,13 C3.451,13.732 3.739,14.423 4.114,15.058 L2.171,17 L5,19.828 L6.942,17.886 C7.578,18.261 8.268,18.549 9,18.738 L9,22 L13,22 L13,18.738 C13.732,18.549 14.422,18.261 15.058,17.886 L17,19.828 L19.829,17 L17.886,15.058 C18.261,14.423 18.549,13.732 18.738,13 L22,13 Z" id="Stroke-1" stroke="#000000" stroke-width="2"></path>
                            <path d="M14,11 C14,12.657 12.657,14 11,14 C9.343,14 8,12.657 8,11 C8,9.343 9.343,8 11,8 C12.657,8 14,9.343 14,11 Z" id="Stroke-3" stroke="#000000" stroke-width="2"></path>
                        </g>
                    </g>
                </g>
            </g>
        </g>
    </g>
</svg>