<?xml version="1.0" encoding="UTF-8"?>
<svg width="35px" height="34px" viewBox="0 0 35 34" version="1.1" xmlns="http://www.w3.org/2000/svg" xmlns:xlink="http://www.w3.org/1999/xlink">
    <title>1ED3849B-DA2C-4F5F-8ED2-F2C0819884FE</title>
    <defs>
        <filter id="filter-1">
            <feColorMatrix in="SourceGraphic" type="matrix" values="0 0 0 0 0.921569 0 0 0 0 0.356863 0 0 0 0 0.219608 0 0 0 1.000000 0"></feColorMatrix>
        </filter>
        <filter x="-28.2%" y="-27.1%" width="160.3%" height="154.2%" filterUnits="objectBoundingBox" id="filter-2">
            <feOffset dx="0" dy="0" in="SourceAlpha" result="shadowOffsetOuter1"></feOffset>
            <feGaussianBlur stdDeviation="1.5" in="shadowOffsetOuter1" result="shadowBlurOuter1"></feGaussianBlur>
            <feColorMatrix values="0 0 0 0 0.921568627   0 0 0 0 0.356862745   0 0 0 0 0.219607843  0 0 0 1 0" type="matrix" in="shadowBlurOuter1" result="shadowMatrixOuter1"></feColorMatrix>
            <feMerge>
                <feMergeNode in="shadowMatrixOuter1"></feMergeNode>
                <feMergeNode in="SourceGraphic"></feMergeNode>
            </feMerge>
        </filter>
        <polygon id="path-3" points="0 0.386307692 22.6992998 0.386307692 22.6992998 23.0767385 0 23.0767385"></polygon>
    </defs>
    <g id="Final-designs---cards" stroke="none" stroke-width="1" fill="none" fill-rule="evenodd">
        <g id="Persona---5.-space-migrant" transform="translate(-14.000000, -765.000000)">
            <g id="item/text-box" transform="translate(-0.187500, 754.000000)">
                <g id="icon/motto" transform="translate(20.000000, 16.000000)">
                    <rect id="Rectangle" x="0" y="0" width="24" height="24"></rect>
                    <g filter="url(#filter-1)" id="Group-14">
                        <g filter="url(#filter-2)" transform="translate(0.000000, 0.000000)">
                            <path d="M11.3435538,17.3781231 C7.75647692,17.3781231 4.83770769,14.4598154 4.83770769,10.8722769 C4.83770769,10.7790462 4.84786154,10.6881231 4.85201538,10.5958154 C4.28063077,9.84904615 3.75678462,9.10273846 3.28970769,8.36981538 C3.04370769,9.16089231 2.91078462,10.0018154 2.91078462,10.8722769 C2.91078462,15.5222769 6.69355385,19.3055077 11.3435538,19.3055077 C12.0810923,19.3055077 12.7927846,19.2007385 13.4744769,19.0225846 C12.7738615,18.5158154 12.0695538,17.9619692 11.3707846,17.3767385 C11.3620154,17.3767385 11.3527846,17.3781231 11.3435538,17.3781231" id="Fill-1" fill="#656D79"></path>
                            <path d="M11.3435538,2.43941538 C10.8977077,2.43941538 10.4638615,2.48464615 10.0364769,2.55156923 C9.63263077,2.6148 9.23893846,2.70664615 8.85586154,2.82295385 C8.57616923,2.90741538 8.30201538,3.00341538 8.03616923,3.11695385 C7.58893846,3.30849231 7.16478462,3.54156923 6.76186154,3.80418462 C5.77786154,4.44526154 4.93324615,5.28249231 4.2894,6.26510769 C4.61847692,6.85033846 5.00570769,7.47295385 5.4534,8.12741538 C6.4914,5.91064615 8.73770769,4.3668 11.3435538,4.3668 C14.9306308,4.3668 17.8494,7.28510769 17.8494,10.8721846 C17.8494,13.5781846 16.2054,15.8941846 13.8506308,16.8735692 C14.4612462,17.3411077 15.4494,18.1903385 15.4494,18.1903385 C15.4494,18.1903385 15.6340154,18.1201846 15.6501692,18.1104923 C16.8612462,17.3872615 17.8724769,16.3686462 18.5915538,15.1557231 C18.8472462,14.7241846 19.0678615,14.2695692 19.2446308,13.7932615 C19.3350923,13.5486462 19.4135538,13.2984923 19.4814,13.0451077 C19.5529385,12.7760308 19.6129385,12.5028 19.6581692,12.2235692 C19.7292462,11.7828 19.7763231,11.3337231 19.7763231,10.8721846 C19.7763231,6.22264615 15.9935538,2.43941538 11.3435538,2.43941538" id="Fill-3" fill="#656D79"></path>
                            <path d="M14.9682462,17.7918462 C13.4225538,16.5733846 11.8870154,15.1523077 10.4040923,13.5678462 C9.52255385,12.6258462 8.69316923,11.6607692 7.93070769,10.6892308 C7.59378462,10.2604615 7.6704,9.64015385 8.10793846,9.31430769 C8.52378462,9.00415385 9.11455385,9.07569231 9.43486154,9.48415385 C10.1664,10.4169231 10.9630154,11.3441538 11.8113231,12.2506154 C13.2277846,13.7644615 14.6917846,15.12 16.1617846,16.2784615 L14.9682462,17.7918462 Z" id="Fill-5" fill="#656D79"></path>
                            <path d="M17.3944615,15.0284769 C16.0250769,13.9050923 14.6681538,12.6280154 13.362,11.2309385 C13.2184615,11.0777077 13.0763077,10.9240154 12.936,10.7703231 C12.5709231,10.3697077 12.6050769,9.74801538 13.014,9.39124615 C13.4072308,9.04832308 14.0026154,9.07924615 14.3543077,9.46509231 C14.4904615,9.61509231 14.6289231,9.76509231 14.7692308,9.91416923 C16.0181538,11.2494 17.3123077,12.4683231 18.6166154,13.5381692 L17.3944615,15.0284769 Z" id="Fill-7" fill="#656D79"></path>
                            <path d="M22.6992462,5.84367692 C22.6992462,6.54198462 22.1329385,7.10829231 21.4346308,7.10829231 C20.7363231,7.10829231 20.1700154,6.54198462 20.1700154,5.84367692 C20.1700154,5.14490769 20.7363231,4.57906154 21.4346308,4.57906154 C22.1329385,4.57906154 22.6992462,5.14490769 22.6992462,5.84367692" id="Fill-9" fill="#656D79"></path>
                            <g id="Group-13" transform="translate(0.000000, 0.075369)">
                                <mask id="mask-4" fill="white">
                                    <use xlink:href="#path-3"></use>
                                </mask>
                                <g id="Clip-12"></g>
                                <path d="M19.4813077,12.9695077 C19.4134615,13.2233538 19.335,13.4735077 19.2445385,13.7176615 C19.0677692,14.1939692 18.8471538,14.6490462 18.5914615,15.0801231 C20.7214615,18.3335077 21.0703846,20.4399692 20.5599231,20.9495077 C19.5846923,21.9270462 14.433,19.7255077 8.89223077,14.1852 C3.35146154,8.64443077 1.15130769,3.49273846 2.127,2.51704615 C2.51423077,2.12889231 4.07792308,2.20227692 6.76176923,3.72904615 C7.16469231,3.46596923 7.58884615,3.23289231 8.03607692,3.04135385 C8.30192308,2.92781538 8.57653846,2.83181538 8.85576923,2.74781538 C5.05453846,0.300738462 2.18884615,-0.270184615 0.764076923,1.15412308 C-1.73976923,3.65796923 2.27192308,10.2902769 7.52930769,15.5476615 C11.6831538,19.7010462 16.6945385,23.0767385 19.8505385,23.0767385 C20.6891538,23.0767385 21.3966923,22.8385846 21.9228462,22.3124308 C24.1105385,20.1252 21.1520769,15.3067385 19.4813077,12.9695077" id="Fill-11" fill="#656D79" mask="url(#mask-4)"></path>
                            </g>
                        </g>
                    </g>
                </g>
            </g>
        </g>
    </g>
</svg>