<?xml version="1.0" encoding="UTF-8"?>
<svg width="29px" height="34px" viewBox="0 0 29 34" version="1.1" xmlns="http://www.w3.org/2000/svg" xmlns:xlink="http://www.w3.org/1999/xlink">
    <title>29DA3B92-4C3D-4266-8BC5-6940219D5BD3</title>
    <defs>
        <filter id="filter-1">
            <feColorMatrix in="SourceGraphic" type="matrix" values="0 0 0 0 0.921569 0 0 0 0 0.356863 0 0 0 0 0.219608 0 0 0 1.000000 0"></feColorMatrix>
        </filter>
        <filter x="-37.1%" y="-27.1%" width="176.8%" height="154.2%" filterUnits="objectBoundingBox" id="filter-2">
            <feOffset dx="0" dy="0" in="SourceAlpha" result="shadowOffsetOuter1"></feOffset>
            <feGaussianBlur stdDeviation="1.5" in="shadowOffsetOuter1" result="shadowBlurOuter1"></feGaussianBlur>
            <feColorMatrix values="0 0 0 0 0.921568627   0 0 0 0 0.356862745   0 0 0 0 0.219607843  0 0 0 1 0" type="matrix" in="shadowBlurOuter1" result="shadowMatrixOuter1"></feColorMatrix>
            <feMerge>
                <feMergeNode in="shadowMatrixOuter1"></feMergeNode>
                <feMergeNode in="SourceGraphic"></feMergeNode>
            </feMerge>
        </filter>
        <polygon id="path-3" points="0.000214246672 0.115384615 10.7046923 0.115384615 10.7046923 12.7891846 0.000214246672 12.7891846"></polygon>
        <polygon id="path-5" points="0.346338462 0.115384615 8.68338462 0.115384615 8.68338462 12.8299385 0.346338462 12.8299385"></polygon>
        <polygon id="path-7" points="0.0285692308 0.196292308 13.6785692 0.196292308 13.6785692 13.8461538 0.0285692308 13.8461538"></polygon>
    </defs>
    <g id="Final-designs---cards" stroke="none" stroke-width="1" fill="none" fill-rule="evenodd">
        <g id="Persona---5.-space-migrant" transform="translate(-17.000000, -921.000000)">
            <g id="item/text-box-copy" transform="translate(-0.187500, 910.000000)">
                <g id="icon/motto" transform="translate(20.000000, 16.000000)">
                    <rect id="Rectangle" x="0" y="0" width="24" height="24"></rect>
                    <g filter="url(#filter-1)" id="Group-14">
                        <g filter="url(#filter-2)" transform="translate(3.000000, 0.000000)">
                            <path d="M8.6094,11.1615231 C8.63986154,11.1610615 8.6694,11.1573692 8.69986154,11.1573692 C8.6694,11.1573692 8.6394,11.1610615 8.6094,11.1615231" id="Fill-1" fill="#656D79"></path>
                            <g id="Group-5" transform="translate(0.000000, 0.346246)">
                                <mask id="mask-4" fill="white">
                                    <use xlink:href="#path-3"></use>
                                </mask>
                                <g id="Clip-4"></g>
                                <path d="M9.70823077,8.43318462 L8.72607692,5.72949231 L6.85684615,0.582415385 C6.75530769,0.302261538 6.48853846,0.115338462 6.19038462,0.115338462 L0.710076923,0.115338462 C0.218076923,0.115338462 -0.124846154,0.604107692 0.0436153846,1.06656923 L4.30084615,12.7891846 C4.73607692,12.3041077 5.24884615,11.8905692 5.82207692,11.5698 L2.38223077,2.09949231 C2.35776923,2.03256923 2.40761538,1.96149231 2.47915385,1.96149231 L5.32130769,1.96149231 C5.36469231,1.96149231 5.40346154,1.98826154 5.41823077,2.02933846 L7.74392308,8.43272308 L8.60930769,10.8151846 C8.63976923,10.8147231 8.66930769,10.8110308 8.69976923,10.8110308 C8.74776923,10.8110308 8.79438462,10.8170308 8.84192308,10.8184154 C9.49684615,10.8341077 10.1203846,10.9651846 10.7046923,11.1770308 L9.70823077,8.43318462 Z" id="Fill-3" fill="#656D79" mask="url(#mask-4)"></path>
                            </g>
                            <g id="Group-8" transform="translate(8.769231, 0.346246)">
                                <mask id="mask-6" fill="white">
                                    <use xlink:href="#path-5"></use>
                                </mask>
                                <g id="Clip-7"></g>
                                <path d="M1.82649231,0.582553846 L0.346338462,4.65701538 L0.620492308,5.41209231 L1.32849231,7.36116923 L3.26510769,2.02947692 C3.27987692,1.9884 3.31818462,1.96116923 3.36156923,1.96116923 L6.20372308,1.96116923 C6.27572308,1.96116923 6.32510769,2.03270769 6.30064615,2.09963077 L2.85387692,11.5902462 C3.42572308,11.9174769 3.93618462,12.3374769 4.36772308,12.8299385 L8.64064615,1.06670769 C8.80818462,0.604246154 8.46572308,0.115015385 7.97326154,0.115015385 L2.49295385,0.115015385 C2.1948,0.115015385 1.92849231,0.3024 1.82649231,0.582553846" id="Fill-6" fill="#656D79" mask="url(#mask-6)"></path>
                            </g>
                            <g id="Group-11" transform="translate(1.846154, 10.038554)">
                                <mask id="mask-8" fill="white">
                                    <use xlink:href="#path-7"></use>
                                </mask>
                                <g id="Clip-10"></g>
                                <path d="M6.8538,2.04244615 C4.10810769,2.04244615 1.87472308,4.27536923 1.87472308,7.02106154 C1.87472308,9.76583077 4.10810769,12.0001385 6.8538,12.0001385 C9.59903077,12.0001385 11.8324154,9.76583077 11.8324154,7.02106154 C11.8324154,4.27536923 9.59903077,2.04244615 6.8538,2.04244615 M6.8538,13.8462923 C3.09041538,13.8462923 0.0285692308,10.7844462 0.0285692308,7.02106154 C0.0285692308,3.25813846 3.09041538,0.196292308 6.8538,0.196292308 C10.6167231,0.196292308 13.6785692,3.25813846 13.6785692,7.02106154 C13.6785692,10.7844462 10.6167231,13.8462923 6.8538,13.8462923" id="Fill-9" fill="#656D79" mask="url(#mask-8)"></path>
                            </g>
                            <path d="M9.06867692,14.7258 L9.55421538,15.7098 C9.60221538,15.8067231 9.69452308,15.8736462 9.8016,15.8893385 L10.8866769,16.0467231 C11.1562154,16.0859538 11.2642154,16.4168769 11.0689846,16.6070308 L10.2834462,17.3727231 C10.2063692,17.4479538 10.1708308,17.5568769 10.1892923,17.6634923 L10.3743692,18.7444154 C10.4205231,19.0125692 10.1389846,19.2170308 9.89806154,19.0905692 L8.92698462,18.5805692 C8.83144615,18.5298 8.71698462,18.5298 8.62144615,18.5805692 L7.65083077,19.0905692 C7.40944615,19.2170308 7.12790769,19.0125692 7.17452308,18.7444154 L7.3596,17.6634923 C7.3776,17.5568769 7.34252308,17.4479538 7.26498462,17.3727231 L6.47990769,16.6070308 C6.28467692,16.4168769 6.39221538,16.0859538 6.66175385,16.0467231 L7.74729231,15.8893385 C7.85390769,15.8736462 7.94621538,15.8067231 7.99467692,15.7098 L8.47975385,14.7258 C8.60021538,14.4821077 8.94821538,14.4821077 9.06867692,14.7258" id="Fill-12" fill="#656D79"></path>
                        </g>
                    </g>
                </g>
            </g>
        </g>
    </g>
</svg>