<?xml version="1.0" encoding="UTF-8"?>
<svg width="37px" height="32px" viewBox="0 0 37 32" version="1.1" xmlns="http://www.w3.org/2000/svg" xmlns:xlink="http://www.w3.org/1999/xlink">
    <title>7E6D6E8F-4ECA-4A1A-9760-3AACB1C4343A</title>
    <defs>
        <filter id="filter-1">
            <feColorMatrix in="SourceGraphic" type="matrix" values="0 0 0 0 0.921569 0 0 0 0 0.356863 0 0 0 0 0.219608 0 0 0 1.000000 0"></feColorMatrix>
        </filter>
        <filter x="-33.3%" y="-40.5%" width="166.7%" height="182.1%" filterUnits="objectBoundingBox" id="filter-2">
            <feOffset dx="0" dy="0" in="SourceAlpha" result="shadowOffsetOuter1"></feOffset>
            <feGaussianBlur stdDeviation="2" in="shadowOffsetOuter1" result="shadowBlurOuter1"></feGaussianBlur>
            <feColorMatrix values="0 0 0 0 0.921568627   0 0 0 0 0.356862745   0 0 0 0 0.219607843  0 0 0 1 0" type="matrix" in="shadowBlurOuter1" result="shadowMatrixOuter1"></feColorMatrix>
            <feMerge>
                <feMergeNode in="shadowMatrixOuter1"></feMergeNode>
                <feMergeNode in="SourceGraphic"></feMergeNode>
            </feMerge>
        </filter>
        <polygon id="path-3" points="0.000174256553 0.00725553395 23.9825882 0.00725553395 23.9825882 16.7325673 0.000174256553 16.7325673"></polygon>
        <polygon id="path-5" points="0.104513294 0.374748921 7.41995667 0.374748921 7.41995667 13.1764706 0.104513294 13.1764706"></polygon>
    </defs>
    <g id="Final-designs---cards" stroke="none" stroke-width="1" fill="none" fill-rule="evenodd">
        <g id="Persona---5.-space-migrant" transform="translate(-13.000000, -1074.000000)">
            <g id="item/text-box-copy-2" transform="translate(-0.187500, 1062.000000)">
                <g id="icon/motto" transform="translate(20.000000, 16.000000)">
                    <rect id="Rectangle" x="0" y="0" width="24" height="24"></rect>
                    <g filter="url(#filter-1)" id="Group-7">
                        <g filter="url(#filter-2)" transform="translate(0.000000, 2.000000)">
                            <g id="Group-3" transform="translate(0.000000, 0.463341)">
                                <mask id="mask-4" fill="white">
                                    <use xlink:href="#path-3"></use>
                                </mask>
                                <g id="Clip-2"></g>
                                <path d="M17.5205176,2.91134118 C16.6489882,2.85063529 15.7958118,2.94992941 14.9788706,3.20498824 C13.2607529,1.02945882 10.5567529,-0.173835294 7.76334118,0.0294588235 C3.61698824,0.333458824 0.211811765,3.82663529 0.0104,7.9824 C-0.102070588,10.3047529 0.716282353,12.5085176 2.31487059,14.1866353 C3.66781176,15.6064 5.41981176,16.4873412 7.33087059,16.7249882 C7.89181176,16.7951059 8.39251765,16.3701647 8.39251765,15.8040471 L8.39251765,15.7786353 C8.39251765,15.3014588 8.02922353,14.9160471 7.55628235,14.8562824 C6.07910588,14.6689882 4.72475294,13.9866353 3.67816471,12.8882824 C2.43769412,11.5866353 1.80334118,9.87651765 1.8904,8.07369412 C2.04663529,4.85110588 4.68663529,2.1424 7.90075294,1.90710588 C10.2574588,1.73251765 12.5238118,2.84969412 13.8245176,4.81863529 C14.0889882,5.21769412 14.6019294,5.37204706 15.0475765,5.18428235 C15.7896941,4.86616471 16.5765176,4.73487059 17.3854588,4.78851765 C19.9431059,4.96310588 22.0132235,7.10757647 22.0974588,9.67087059 C22.1431059,11.0581647 21.6381647,12.3701647 20.6753412,13.3649882 C19.9045176,14.1612235 18.9228706,14.6713412 17.8522824,14.8431059 C17.3882824,14.9184 17.0344,15.2953412 17.0344,15.7654588 L17.0344,15.7889882 C17.0344,16.3631059 17.5496941,16.7960471 18.1172235,16.7075765 C19.6009882,16.4779294 20.9614588,15.7758118 22.0278118,14.6736941 C23.5732235,13.0769882 24.2588706,10.8845176 23.8805176,8.62945882 C23.3553412,5.50851765 20.6781647,3.13157647 17.5205176,2.91134118" id="Fill-1" fill="#656D79" mask="url(#mask-4)"></path>
                            </g>
                            <g id="Group-6" transform="translate(8.000000, 6.580988)">
                                <mask id="mask-6" fill="white">
                                    <use xlink:href="#path-5"></use>
                                </mask>
                                <g id="Clip-5"></g>
                                <path d="M2.62809412,13.0781647 L2.62809412,13.0781647 C2.16268235,12.8471059 1.97209412,12.2828706 2.20362353,11.8165176 L4.82856471,6.52522353 L0.832329412,6.52522353 C0.263388235,6.52522353 -0.0853176471,5.90028235 0.214447059,5.41651765 L3.06056471,0.820282353 C3.33397647,0.3784 3.91421176,0.2424 4.35609412,0.515811765 C4.79797647,0.789223529 4.93444706,1.36945882 4.66056471,1.81134118 L2.90762353,4.64287059 L6.69256471,4.64287059 C7.23138824,4.64287059 7.58291765,5.20945882 7.34338824,5.69228235 L3.88974118,12.6536941 C3.65821176,13.1191059 3.09350588,13.3092235 2.62809412,13.0781647" id="Fill-4" fill="#656D79" mask="url(#mask-6)"></path>
                            </g>
                        </g>
                    </g>
                </g>
            </g>
        </g>
    </g>
</svg>