<?xml version="1.0" encoding="UTF-8"?>
<svg width="25px" height="24px" viewBox="0 0 25 24" version="1.1" xmlns="http://www.w3.org/2000/svg" xmlns:xlink="http://www.w3.org/1999/xlink">
    <title>6BE4C003-E81E-4D34-834C-64F5AF6FB696</title>
    <defs>
        <filter id="filter-1">
            <feColorMatrix in="SourceGraphic" type="matrix" values="0 0 0 0 1.000000 0 0 0 0 1.000000 0 0 0 0 1.000000 0 0 0 1.000000 0"></feColorMatrix>
        </filter>
    </defs>
    <g id="Asset-Artboard-Page" stroke="none" stroke-width="1" fill="none" fill-rule="evenodd">
        <g id="icon/challenges-icon/personas" transform="translate(0.440000, 0.000000)">
            <rect id="Rectangle" x="0" y="0" width="24" height="24"></rect>
            <g filter="url(#filter-1)" id="noun_Astronaut_3261745">
                <g transform="translate(0.000000, 2.000000)" id="Group" fill="#000000" fill-rule="nonzero">
                    <path d="M19.6201125,18.1242987 L19.6201125,14.772345 L19.642455,14.772345 C20.7634275,14.772345 21.6752925,13.86048 21.6752925,12.739875 C21.6752925,12.6643425 21.6751575,10.564395 21.6751575,10.6983375 L21.6751575,5.0077425 C23.6590575,4.358175 23.7800025,1.71468 22.019535,0.808725 C21.3193425,0.446175 20.4323775,0.4838925 19.7973675,0.8720775 C19.1004675,1.27857 18.667605,2.0325975 18.667605,2.8400925 C18.667605,3.72156 19.157505,4.599825 20.1751575,4.9769775 L20.1751575,8.7543975 C19.744725,8.63712 19.5640875,8.68656 19.3236225,8.6749275 C18.327165,4.8206475 14.908215,2.0823975 10.96509,2.0823975 C7.0275,2.0823975 3.612675,4.8186825 2.6145225,8.6749275 L2.2950525,8.6749275 C1.1744475,8.6749275 0.2625825,9.5831325 0.2625825,10.69971 L0.2625825,12.739875 C0.2625825,13.86048 1.1744475,14.772345 2.2950525,14.772345 L2.317755,14.772345 L2.317755,18.1216437 C7.78065728,21.0537525 13.5481098,21.0546375 19.6201125,18.1242987 Z M20.167605,2.8400925 C20.167605,2.40609 20.53185,2.052375 20.96265,2.052375 C22.36254,2.052375 21.689535,4.217595 20.5528575,3.5190525 C20.3151825,3.3806175 20.167605,3.120615 20.167605,2.8400925 Z M19.642455,10.174935 C20.469495,10.174935 20.0862075,11.357475 20.1751575,12.0573975 L20.1752925,12.0573975 C20.1363825,12.2512575 20.384355,13.272345 19.642455,13.272345 L19.6201125,13.272345 C19.610865,11.1128475 19.64346,10.843905 19.584225,10.174935 L19.642455,10.174935 L19.642455,10.174935 Z M3.8177475,10.96998 C3.8177475,10.5174825 3.861555,10.0433775 3.9479325,9.56103 C5.549925,0.9364875 18.1201125,1.958265 18.1201125,10.96998 C18.1201125,11.079615 18.1201125,17.4851475 18.1201125,17.335365 C13.39581,19.31226 8.61822,19.403955 3.8177475,17.3429175 C3.8177475,17.1793125 3.8177475,10.89417 3.8177475,10.96998 Z M2.295045,13.272345 C2.001345,13.272345 1.762575,13.033575 1.762575,12.739875 L1.762575,10.69971 C1.762575,10.405275 1.9965825,10.1749275 2.295045,10.1749275 L2.3536425,10.1749275 C2.3298375,10.4437275 2.317755,10.709595 2.317755,10.9699725 L2.317755,13.272345 L2.295045,13.272345 L2.295045,13.272345 Z" id="Shape"></path>
                    <path d="M17.1591825,11.719245 C17.1591825,8.30259 14.377215,5.529915 10.9698525,5.529915 C6.4847325,5.529915 3.4620225,10.178325 5.32947,14.2871175 C8.094495,20.278005 17.1591825,18.3557175 17.1591825,11.719245 Z M10.75488,16.4089425 C8.1641175,16.2861225 6.273555,14.144205 6.273555,11.719245 C6.273555,9.1334325 8.380365,7.029915 10.969845,7.029915 C13.487955,7.029915 15.659175,9.0778125 15.659175,11.719245 C15.659175,14.5261125 13.19394,16.61379 10.75488,16.4089425 Z" id="Shape"></path>
                </g>
            </g>
        </g>
    </g>
</svg>