<?xml version="1.0" encoding="UTF-8"?>
<svg width="104px" height="24px" viewBox="0 0 104 24" version="1.1" xmlns="http://www.w3.org/2000/svg" xmlns:xlink="http://www.w3.org/1999/xlink">
    <title>7322549B-3ED3-418E-B712-81BD92E2E0A8</title>
    <defs>
        <filter id="filter-1">
            <feColorMatrix in="SourceGraphic" type="matrix" values="0 0 0 0 0.921569 0 0 0 0 0.364706 0 0 0 0 0.227451 0 0 0 1.000000 0"></feColorMatrix>
        </filter>
    </defs>
    <g id="UI---agreed" stroke="none" stroke-width="1" fill="none" fill-rule="evenodd">
        <g id="00.1-Home-full" transform="translate(-26.000000, -128.000000)">
            <g id="Group-3" transform="translate(26.000000, 128.000000)">
                <text id="Sound-off" font-family="Roboto-Medium, Roboto" font-size="16" font-weight="400" letter-spacing="-0.222402957" fill="#EB5D3A">
                    <tspan x="29" y="18">Sound off</tspan>
                </text>
                <g filter="url(#filter-1)" id="volume_off-24px">
                    <g>
                        <polygon id="Path" points="0 0 24 0 24 24 0 24"></polygon>
                        <path d="M16.5,12 C16.5,10.23 15.48,8.71 14,7.97 L14,10.18 L16.45,12.63 C16.48,12.43 16.5,12.22 16.5,12 L16.5,12 Z M19,12 C19,12.94 18.8,13.82 18.46,14.64 L19.97,16.15 C20.63,14.91 21,13.5 21,12 C21,7.72 18.01,4.14 14,3.23 L14,5.29 C16.89,6.15 19,8.83 19,12 Z M4.27,3 L3,4.27 L7.73,9 L3,9 L3,15 L7,15 L12,20 L12,13.27 L16.25,17.52 C15.58,18.04 14.83,18.45 14,18.7 L14,20.76 C15.38,20.45 16.63,19.81 17.69,18.95 L19.73,21 L21,19.73 L12,10.73 L4.27,3 Z M12,4 L9.91,6.09 L12,8.18 L12,4 Z" id="Shape" fill="#000000" fill-rule="nonzero"></path>
                    </g>
                </g>
            </g>
        </g>
    </g>
</svg>