<?xml version="1.0" encoding="UTF-8"?>
<svg width="36px" height="36px" viewBox="0 0 36 36" version="1.1" xmlns="http://www.w3.org/2000/svg" xmlns:xlink="http://www.w3.org/1999/xlink">
    <title>9A6130DA-ED5E-4A53-902C-F42A54602007</title>
    <defs>
        <filter id="filter-1">
            <feColorMatrix in="SourceGraphic" type="matrix" values="0 0 0 0 1.000000 0 0 0 0 0.647059 0 0 0 0 0.368627 0 0 0 1.000000 0"></feColorMatrix>
        </filter>
        <filter x="-33.3%" y="-33.3%" width="166.7%" height="166.7%" filterUnits="objectBoundingBox" id="filter-2">
            <feOffset dx="0" dy="0" in="SourceAlpha" result="shadowOffsetOuter1"></feOffset>
            <feGaussianBlur stdDeviation="2" in="shadowOffsetOuter1" result="shadowBlurOuter1"></feGaussianBlur>
            <feColorMatrix values="0 0 0 0 1   0 0 0 0 0.647058824   0 0 0 0 0.368627451  0 0 0 1 0" type="matrix" in="shadowBlurOuter1" result="shadowMatrixOuter1"></feColorMatrix>
            <feMerge>
                <feMergeNode in="shadowMatrixOuter1"></feMergeNode>
                <feMergeNode in="SourceGraphic"></feMergeNode>
            </feMerge>
        </filter>
        <filter id="filter-3">
            <feColorMatrix in="SourceGraphic" type="matrix" values="0 0 0 0 1.000000 0 0 0 0 1.000000 0 0 0 0 1.000000 0 0 0 1.000000 0"></feColorMatrix>
        </filter>
        <polygon id="path-4" points="0 0.198475472 14.2910943 0.198475472 14.2910943 14.490566 0 14.490566"></polygon>
        <polygon id="path-6" points="0.44861661 0.203773585 2.86087927 0.203773585 2.86087927 4.55175513 0.44861661 4.55175513"></polygon>
        <polygon id="path-8" points="0 0.198475472 14.2910943 0.198475472 14.2910943 14.490566 0 14.490566"></polygon>
        <polygon id="path-10" points="0.44861661 0.203773585 2.86087927 0.203773585 2.86087927 4.55175513 0.44861661 4.55175513"></polygon>
    </defs>
    <g id="Final-designs---cards" stroke="none" stroke-width="1" fill="none" fill-rule="evenodd">
        <g id="Tool---1.-ai-cobots" transform="translate(-129.000000, -133.000000)">
            <g id="categories" transform="translate(26.000000, 125.000000)">
                <g id="icon/challenges" transform="translate(83.000000, 0.000000)" filter="url(#filter-1)">
                    <g filter="url(#filter-2)" transform="translate(26.000000, 14.000000)">
                        <rect id="Rectangle" x="0" y="0" width="24" height="24"></rect>
                        <g filter="url(#filter-3)" id="Group-33">
                            <g>
                                <g id="Group-3" transform="translate(0.000000, 9.305706)">
                                    <mask id="mask-5" fill="white">
                                        <use xlink:href="#path-4"></use>
                                    </mask>
                                    <g id="Clip-2"></g>
                                    <path d="M13.0023396,4.32783396 L4.92566038,12.4208151 L2.06920755,9.56481509 L9.8234717,1.79424906 C10.0018868,1.61583396 10.001434,1.3269283 9.8234717,1.14896604 L8.87298113,0.198475472 L0.348,8.72390943 C-0.116150943,9.18851321 -0.116150943,9.94111698 0.348,10.4052679 L4.08520755,14.1420226 C4.30845283,14.3652679 4.61049057,14.4907019 4.92611321,14.4907019 L4.92701887,14.4907019 C5.24445283,14.4902491 5.54286792,14.3657208 5.76566038,14.1420226 L14.2910943,5.61704151 L13.0023396,4.32783396 Z" id="Fill-1" fill="#656D79" mask="url(#mask-5)"></path>
                                </g>
                                <path d="M9.28704906,14.5309585 C9.58999245,14.8343547 9.58999245,15.3256755 9.28704906,15.6286189 C8.98410566,15.9320151 8.49278491,15.9320151 8.18984151,15.6286189 C7.88644528,15.3256755 7.88644528,14.8343547 8.18984151,14.5309585 C8.49278491,14.2280151 8.98410566,14.2280151 9.28704906,14.5309585" id="Fill-4" fill="#656D79"></path>
                                <path d="M18.9441962,13.1286792 L10.5885736,4.7730566 C10.2349132,4.41939623 10.2349132,3.84611321 10.5885736,3.49245283 C10.942234,3.13833962 11.515517,3.13833962 11.8691774,3.49245283 L20.2248,11.8485283 C20.5784604,12.2017358 20.5784604,12.7754717 20.2248,13.1286792 C19.8711396,13.4823396 19.2978566,13.4823396 18.9441962,13.1286792" id="Fill-6" fill="#656D79"></path>
                                <path d="M17.1220528,13.0791849 L10.7018264,6.65895849 C10.4713358,6.42575094 10.1425811,6.3306566 9.82243019,6.40446792 C9.49820377,6.4896 9.23873208,6.7341283 9.13503396,7.05337358 L7.83993962,11.0328453 L9.90620377,10.5374491 L10.4246943,8.94348679 L14.8524679,13.3712604 L13.2580528,13.8897509 L11.1111849,11.7424302 C10.7575245,11.3892226 10.1842415,11.3892226 9.8301283,11.7424302 C9.47692075,12.0960906 9.47692075,12.6698264 9.8301283,13.0234868 L12.7631094,15.9560151 L16.7674868,14.6527698 C17.0776755,14.5517887 17.3099774,14.3027321 17.3878642,13.9866566 C17.4598642,13.6583547 17.3593358,13.3164679 17.1220528,13.0791849" id="Fill-8" fill="#656D79"></path>
                                <path d="M17.1611774,6.90892075 L17.1611774,6.90892075 C16.9207245,6.66846792 16.9207245,6.2781283 17.1611774,6.03767547 L21.6731774,1.52567547 C21.9136302,1.28522264 22.303517,1.28522264 22.5444226,1.52567547 C22.7848755,1.76658113 22.7848755,2.15646792 22.5444226,2.39692075 L18.0324226,6.90892075 C17.7919698,7.14937358 17.4016302,7.14937358 17.1611774,6.90892075" id="Fill-10" fill="#656D79"></path>
                                <path d="M19.3888302,9.26504151 L19.3888302,9.26504151 C19.2683774,8.94715472 19.4286792,8.59168302 19.7470189,8.47077736 L22.8620377,7.29115472 C23.1803774,7.17070189 23.5358491,7.33100377 23.6563019,7.6493434 C23.7767547,7.96723019 23.6169057,8.32270189 23.298566,8.44360755 L20.1830943,9.62323019 C19.8647547,9.74368302 19.509283,9.58338113 19.3888302,9.26504151" id="Fill-12" fill="#656D79"></path>
                                <g id="Group-16" transform="translate(14.037736, 0.249102)">
                                    <mask id="mask-7" fill="white">
                                        <use xlink:href="#path-6"></use>
                                    </mask>
                                    <g id="Clip-15"></g>
                                    <path d="M0.846475472,4.51150189 L0.846475472,4.51150189 C1.16481509,4.63240755 1.52028679,4.47165283 1.64073962,4.15376604 L2.82081509,1.03784151 C2.94126792,0.719954717 2.78096604,0.364483019 2.46262642,0.243577358 C2.14473962,0.123577358 1.78926792,0.283426415 1.66836226,0.601766038 L0.488739623,3.71723774 C0.368286792,4.03512453 0.528135849,4.39104906 0.846475472,4.51150189" id="Fill-14" fill="#656D79" mask="url(#mask-7)"></path>
                                </g>
                                <g id="Group-19" transform="translate(0.000000, 9.305706)">
                                    <mask id="mask-9" fill="white">
                                        <use xlink:href="#path-8"></use>
                                    </mask>
                                    <g id="Clip-18"></g>
                                    <path d="M13.0023396,4.32783396 L4.92566038,12.4208151 L2.06920755,9.56481509 L9.8234717,1.79424906 C10.0018868,1.61583396 10.001434,1.3269283 9.8234717,1.14896604 L8.87298113,0.198475472 L0.348,8.72390943 C-0.116150943,9.18851321 -0.116150943,9.94111698 0.348,10.4052679 L4.08520755,14.1420226 C4.30845283,14.3652679 4.61049057,14.4907019 4.92611321,14.4907019 L4.92701887,14.4907019 C5.24445283,14.4902491 5.54286792,14.3657208 5.76566038,14.1420226 L14.2910943,5.61704151 L13.0023396,4.32783396 Z" id="Fill-17" fill="#656D79" mask="url(#mask-9)"></path>
                                </g>
                                <path d="M9.28704906,14.5309585 C9.58999245,14.8343547 9.58999245,15.3256755 9.28704906,15.6286189 C8.98410566,15.9320151 8.49278491,15.9320151 8.18984151,15.6286189 C7.88644528,15.3256755 7.88644528,14.8343547 8.18984151,14.5309585 C8.49278491,14.2280151 8.98410566,14.2280151 9.28704906,14.5309585" id="Fill-20" fill="#656D79"></path>
                                <path d="M18.9441962,13.1286792 L10.5885736,4.7730566 C10.2349132,4.41939623 10.2349132,3.84611321 10.5885736,3.49245283 C10.942234,3.13833962 11.515517,3.13833962 11.8691774,3.49245283 L20.2248,11.8485283 C20.5784604,12.2017358 20.5784604,12.7754717 20.2248,13.1286792 C19.8711396,13.4823396 19.2978566,13.4823396 18.9441962,13.1286792" id="Fill-22" fill="#656D79"></path>
                                <path d="M17.1220528,13.0791849 L10.7018264,6.65895849 C10.4713358,6.42575094 10.1425811,6.3306566 9.82243019,6.40446792 C9.49820377,6.4896 9.23873208,6.7341283 9.13503396,7.05337358 L7.83993962,11.0328453 L9.90620377,10.5374491 L10.4246943,8.94348679 L14.8524679,13.3712604 L13.2580528,13.8897509 L11.1111849,11.7424302 C10.7575245,11.3892226 10.1842415,11.3892226 9.8301283,11.7424302 C9.47692075,12.0960906 9.47692075,12.6698264 9.8301283,13.0234868 L12.7631094,15.9560151 L16.7674868,14.6527698 C17.0776755,14.5517887 17.3099774,14.3027321 17.3878642,13.9866566 C17.4598642,13.6583547 17.3593358,13.3164679 17.1220528,13.0791849" id="Fill-24" fill="#656D79"></path>
                                <path d="M17.1611774,6.90892075 L17.1611774,6.90892075 C16.9207245,6.66846792 16.9207245,6.2781283 17.1611774,6.03767547 L21.6731774,1.52567547 C21.9136302,1.28522264 22.303517,1.28522264 22.5444226,1.52567547 C22.7848755,1.76658113 22.7848755,2.15646792 22.5444226,2.39692075 L18.0324226,6.90892075 C17.7919698,7.14937358 17.4016302,7.14937358 17.1611774,6.90892075" id="Fill-26" fill="#656D79"></path>
                                <path d="M19.3888302,9.26504151 L19.3888302,9.26504151 C19.2683774,8.94715472 19.4286792,8.59168302 19.7470189,8.47077736 L22.8620377,7.29115472 C23.1803774,7.17070189 23.5358491,7.33100377 23.6563019,7.6493434 C23.7767547,7.96723019 23.6169057,8.32270189 23.298566,8.44360755 L20.1830943,9.62323019 C19.8647547,9.74368302 19.509283,9.58338113 19.3888302,9.26504151" id="Fill-28" fill="#656D79"></path>
                                <g id="Group-32" transform="translate(14.037736, 0.249102)">
                                    <mask id="mask-11" fill="white">
                                        <use xlink:href="#path-10"></use>
                                    </mask>
                                    <g id="Clip-31"></g>
                                    <path d="M0.846475472,4.51150189 L0.846475472,4.51150189 C1.16481509,4.63240755 1.52028679,4.47165283 1.64073962,4.15376604 L2.82081509,1.03784151 C2.94126792,0.719954717 2.78096604,0.364483019 2.46262642,0.243577358 C2.14473962,0.123577358 1.78926792,0.283426415 1.66836226,0.601766038 L0.488739623,3.71723774 C0.368286792,4.03512453 0.528135849,4.39104906 0.846475472,4.51150189" id="Fill-30" fill="#656D79" mask="url(#mask-11)"></path>
                                </g>
                            </g>
                        </g>
                    </g>
                </g>
            </g>
        </g>
    </g>
</svg>